<svg xmlns="http://www.w3.org/2000/svg" version="1.1" xmlns:xlink="http://www.w3.org/1999/xlink" xmlns:svgjs="http://svgjs.com/svgjs" width="1440" height="560" preserveAspectRatio="none" viewBox="0 0 1440 560"><g mask="url(&quot;#SvgjsMask1209&quot;)" fill="none"><rect width="1440" height="560" x="0" y="0" fill="#0e2a47"></rect><path d="M135.33 392.7L212.41 437.2L212.41 526.2L135.33 570.7L58.25 526.2L58.25 437.2zM212.41 259.2L289.49 303.7L289.49 392.7L212.41 437.2L135.33 392.7L135.33 303.7zM212.41 526.2L289.49 570.7L289.49 659.7L212.41 704.2L135.33 659.7L135.33 570.7zM597.8 125.7L674.88 170.2L674.88 259.2L597.8 303.7L520.72 259.2L520.72 170.2zM520.72 526.2L597.8 570.7L597.8 659.7L520.72 704.2L443.64 659.7L443.64 570.7zM674.88 259.2L751.96 303.7L751.96 392.7L674.88 437.2L597.8 392.7L597.8 303.7zM751.96 392.7L829.03 437.2L829.03 526.2L751.96 570.7L674.88 526.2L674.88 437.2zM829.03 -7.8L906.11 36.7L906.11 125.7L829.03 170.2L751.96 125.7L751.96 36.7zM829.03 526.2L906.11 570.7L906.11 659.7L829.03 704.2L751.96 659.7L751.96 570.7zM1060.27 392.7L1137.35 437.2L1137.35 526.2L1060.27 570.7L983.19 526.2L983.19 437.2zM983.19 526.2L1060.27 570.7L1060.27 659.7L983.19 704.2L906.11 659.7L906.11 570.7zM1214.43 125.7L1291.51 170.2L1291.51 259.2L1214.43 303.7L1137.35 259.2L1137.35 170.2zM1137.35 259.2L1214.43 303.7L1214.43 392.7L1137.35 437.2L1060.27 392.7L1060.27 303.7zM1368.58 125.7L1445.66 170.2L1445.66 259.2L1368.58 303.7L1291.51 259.2L1291.51 170.2zM1291.51 259.2L1368.58 303.7L1368.58 392.7L1291.51 437.2L1214.43 392.7L1214.43 303.7zM1368.58 392.7L1445.66 437.2L1445.66 526.2L1368.58 570.7L1291.51 526.2L1291.51 437.2zM1445.66 -7.8L1522.74 36.7L1522.74 125.7L1445.66 170.2L1368.58 125.7L1368.58 36.7z" stroke="#03305d" stroke-width="2"></path><path d="M126.43 392.7 a8.9 8.9 0 1 0 17.8 0 a8.9 8.9 0 1 0 -17.8 0zM203.51 437.2 a8.9 8.9 0 1 0 17.8 0 a8.9 8.9 0 1 0 -17.8 0zM203.51 526.2 a8.9 8.9 0 1 0 17.8 0 a8.9 8.9 0 1 0 -17.8 0zM126.43 570.7 a8.9 8.9 0 1 0 17.8 0 a8.9 8.9 0 1 0 -17.8 0zM49.35 526.2 a8.9 8.9 0 1 0 17.8 0 a8.9 8.9 0 1 0 -17.8 0zM49.35 437.2 a8.9 8.9 0 1 0 17.8 0 a8.9 8.9 0 1 0 -17.8 0zM203.51 259.2 a8.9 8.9 0 1 0 17.8 0 a8.9 8.9 0 1 0 -17.8 0zM280.59 303.7 a8.9 8.9 0 1 0 17.8 0 a8.9 8.9 0 1 0 -17.8 0zM280.59 392.7 a8.9 8.9 0 1 0 17.8 0 a8.9 8.9 0 1 0 -17.8 0zM126.43 303.7 a8.9 8.9 0 1 0 17.8 0 a8.9 8.9 0 1 0 -17.8 0zM280.59 570.7 a8.9 8.9 0 1 0 17.8 0 a8.9 8.9 0 1 0 -17.8 0zM280.59 659.7 a8.9 8.9 0 1 0 17.8 0 a8.9 8.9 0 1 0 -17.8 0zM203.51 704.2 a8.9 8.9 0 1 0 17.8 0 a8.9 8.9 0 1 0 -17.8 0zM126.43 659.7 a8.9 8.9 0 1 0 17.8 0 a8.9 8.9 0 1 0 -17.8 0zM588.9 125.7 a8.9 8.9 0 1 0 17.8 0 a8.9 8.9 0 1 0 -17.8 0zM665.98 170.2 a8.9 8.9 0 1 0 17.8 0 a8.9 8.9 0 1 0 -17.8 0zM665.98 259.2 a8.9 8.9 0 1 0 17.8 0 a8.9 8.9 0 1 0 -17.8 0zM588.9 303.7 a8.9 8.9 0 1 0 17.8 0 a8.9 8.9 0 1 0 -17.8 0zM511.82 259.2 a8.9 8.9 0 1 0 17.8 0 a8.9 8.9 0 1 0 -17.8 0zM511.82 170.2 a8.9 8.9 0 1 0 17.8 0 a8.9 8.9 0 1 0 -17.8 0zM511.82 526.2 a8.9 8.9 0 1 0 17.8 0 a8.9 8.9 0 1 0 -17.8 0zM588.9 570.7 a8.9 8.9 0 1 0 17.8 0 a8.9 8.9 0 1 0 -17.8 0zM588.9 659.7 a8.9 8.9 0 1 0 17.8 0 a8.9 8.9 0 1 0 -17.8 0zM511.82 704.2 a8.9 8.9 0 1 0 17.8 0 a8.9 8.9 0 1 0 -17.8 0zM434.74 659.7 a8.9 8.9 0 1 0 17.8 0 a8.9 8.9 0 1 0 -17.8 0zM434.74 570.7 a8.9 8.9 0 1 0 17.8 0 a8.9 8.9 0 1 0 -17.8 0zM743.06 303.7 a8.9 8.9 0 1 0 17.8 0 a8.9 8.9 0 1 0 -17.8 0zM743.06 392.7 a8.9 8.9 0 1 0 17.8 0 a8.9 8.9 0 1 0 -17.8 0zM665.98 437.2 a8.9 8.9 0 1 0 17.8 0 a8.9 8.9 0 1 0 -17.8 0zM588.9 392.7 a8.9 8.9 0 1 0 17.8 0 a8.9 8.9 0 1 0 -17.8 0zM820.13 437.2 a8.9 8.9 0 1 0 17.8 0 a8.9 8.9 0 1 0 -17.8 0zM820.13 526.2 a8.9 8.9 0 1 0 17.8 0 a8.9 8.9 0 1 0 -17.8 0zM743.06 570.7 a8.9 8.9 0 1 0 17.8 0 a8.9 8.9 0 1 0 -17.8 0zM665.98 526.2 a8.9 8.9 0 1 0 17.8 0 a8.9 8.9 0 1 0 -17.8 0zM820.13 -7.8 a8.9 8.9 0 1 0 17.8 0 a8.9 8.9 0 1 0 -17.8 0zM897.21 36.7 a8.9 8.9 0 1 0 17.8 0 a8.9 8.9 0 1 0 -17.8 0zM897.21 125.7 a8.9 8.9 0 1 0 17.8 0 a8.9 8.9 0 1 0 -17.8 0zM820.13 170.2 a8.9 8.9 0 1 0 17.8 0 a8.9 8.9 0 1 0 -17.8 0zM743.06 125.7 a8.9 8.9 0 1 0 17.8 0 a8.9 8.9 0 1 0 -17.8 0zM743.06 36.7 a8.9 8.9 0 1 0 17.8 0 a8.9 8.9 0 1 0 -17.8 0zM897.21 570.7 a8.9 8.9 0 1 0 17.8 0 a8.9 8.9 0 1 0 -17.8 0zM897.21 659.7 a8.9 8.9 0 1 0 17.8 0 a8.9 8.9 0 1 0 -17.8 0zM820.13 704.2 a8.9 8.9 0 1 0 17.8 0 a8.9 8.9 0 1 0 -17.8 0zM743.06 659.7 a8.9 8.9 0 1 0 17.8 0 a8.9 8.9 0 1 0 -17.8 0zM1051.37 392.7 a8.9 8.9 0 1 0 17.8 0 a8.9 8.9 0 1 0 -17.8 0zM1128.45 437.2 a8.9 8.9 0 1 0 17.8 0 a8.9 8.9 0 1 0 -17.8 0zM1128.45 526.2 a8.9 8.9 0 1 0 17.8 0 a8.9 8.9 0 1 0 -17.8 0zM1051.37 570.7 a8.9 8.9 0 1 0 17.8 0 a8.9 8.9 0 1 0 -17.8 0zM974.29 526.2 a8.9 8.9 0 1 0 17.8 0 a8.9 8.9 0 1 0 -17.8 0zM974.29 437.2 a8.9 8.9 0 1 0 17.8 0 a8.9 8.9 0 1 0 -17.8 0zM1051.37 659.7 a8.9 8.9 0 1 0 17.8 0 a8.9 8.9 0 1 0 -17.8 0zM974.29 704.2 a8.9 8.9 0 1 0 17.8 0 a8.9 8.9 0 1 0 -17.8 0zM1205.53 125.7 a8.9 8.9 0 1 0 17.8 0 a8.9 8.9 0 1 0 -17.8 0zM1282.61 170.2 a8.9 8.9 0 1 0 17.8 0 a8.9 8.9 0 1 0 -17.8 0zM1282.61 259.2 a8.9 8.9 0 1 0 17.8 0 a8.9 8.9 0 1 0 -17.8 0zM1205.53 303.7 a8.9 8.9 0 1 0 17.8 0 a8.9 8.9 0 1 0 -17.8 0zM1128.45 259.2 a8.9 8.9 0 1 0 17.8 0 a8.9 8.9 0 1 0 -17.8 0zM1128.45 170.2 a8.9 8.9 0 1 0 17.8 0 a8.9 8.9 0 1 0 -17.8 0zM1205.53 392.7 a8.9 8.9 0 1 0 17.8 0 a8.9 8.9 0 1 0 -17.8 0zM1051.37 303.7 a8.9 8.9 0 1 0 17.8 0 a8.9 8.9 0 1 0 -17.8 0zM1359.68 125.7 a8.9 8.9 0 1 0 17.8 0 a8.9 8.9 0 1 0 -17.8 0zM1436.76 170.2 a8.9 8.9 0 1 0 17.8 0 a8.9 8.9 0 1 0 -17.8 0zM1436.76 259.2 a8.9 8.9 0 1 0 17.8 0 a8.9 8.9 0 1 0 -17.8 0zM1359.68 303.7 a8.9 8.9 0 1 0 17.8 0 a8.9 8.9 0 1 0 -17.8 0zM1359.68 392.7 a8.9 8.9 0 1 0 17.8 0 a8.9 8.9 0 1 0 -17.8 0zM1282.61 437.2 a8.9 8.9 0 1 0 17.8 0 a8.9 8.9 0 1 0 -17.8 0zM1436.76 437.2 a8.9 8.9 0 1 0 17.8 0 a8.9 8.9 0 1 0 -17.8 0zM1436.76 526.2 a8.9 8.9 0 1 0 17.8 0 a8.9 8.9 0 1 0 -17.8 0zM1359.68 570.7 a8.9 8.9 0 1 0 17.8 0 a8.9 8.9 0 1 0 -17.8 0zM1282.61 526.2 a8.9 8.9 0 1 0 17.8 0 a8.9 8.9 0 1 0 -17.8 0zM1436.76 -7.8 a8.9 8.9 0 1 0 17.8 0 a8.9 8.9 0 1 0 -17.8 0zM1513.84 36.7 a8.9 8.9 0 1 0 17.8 0 a8.9 8.9 0 1 0 -17.8 0zM1513.84 125.7 a8.9 8.9 0 1 0 17.8 0 a8.9 8.9 0 1 0 -17.8 0zM1359.68 36.7 a8.9 8.9 0 1 0 17.8 0 a8.9 8.9 0 1 0 -17.8 0z" fill="#03305d"></path><path d="M47.47 177.07L90.78 202.07L90.78 252.07L47.47 277.07L4.17 252.07L4.17 202.07zM4.17 252.07L47.47 277.07L47.47 327.07L4.17 352.07L-39.13 327.07L-39.13 277.07zM4.17 402.07L47.47 427.07L47.47 477.07L4.17 502.07L-39.13 477.07L-39.13 427.07zM47.47 477.07L90.78 502.07L90.78 552.07L47.47 577.07L4.17 552.07L4.17 502.07zM134.08 27.07L177.38 52.07L177.38 102.07L134.08 127.07L90.78 102.07L90.78 52.07zM177.38 -47.93L220.68 -22.93L220.68 27.07L177.38 52.07L134.08 27.07L134.08 -22.93zM220.68 27.07L263.99 52.07L263.99 102.07L220.68 127.07L177.38 102.07L177.38 52.07zM220.68 177.07L263.99 202.07L263.99 252.07L220.68 277.07L177.38 252.07L177.38 202.07zM220.68 327.07L263.99 352.07L263.99 402.07L220.68 427.07L177.38 402.07L177.38 352.07zM177.38 402.07L220.68 427.07L220.68 477.07L177.38 502.07L134.08 477.07L134.08 427.07zM220.68 477.07L263.99 502.07L263.99 552.07L220.68 577.07L177.38 552.07L177.38 502.07zM263.99 402.07L307.29 427.07L307.29 477.07L263.99 502.07L220.68 477.07L220.68 427.07zM393.89 27.07L437.2 52.07L437.2 102.07L393.89 127.07L350.59 102.07L350.59 52.07zM350.59 102.07L393.89 127.07L393.89 177.07L350.59 202.07L307.29 177.07L307.29 127.07zM393.89 177.07L437.2 202.07L437.2 252.07L393.89 277.07L350.59 252.07L350.59 202.07zM393.89 477.07L437.2 502.07L437.2 552.07L393.89 577.07L350.59 552.07L350.59 502.07zM437.2 -47.93L480.5 -22.93L480.5 27.07L437.2 52.07L393.89 27.07L393.89 -22.93zM437.2 402.07L480.5 427.07L480.5 477.07L437.2 502.07L393.89 477.07L393.89 427.07zM480.5 477.07L523.8 502.07L523.8 552.07L480.5 577.07L437.2 552.07L437.2 502.07zM523.8 102.07L567.1 127.07L567.1 177.07L523.8 202.07L480.5 177.07L480.5 127.07zM523.8 252.07L567.1 277.07L567.1 327.07L523.8 352.07L480.5 327.07L480.5 277.07zM653.71 27.07L697.01 52.07L697.01 102.07L653.71 127.07L610.4 102.07L610.4 52.07zM610.4 252.07L653.71 277.07L653.71 327.07L610.4 352.07L567.1 327.07L567.1 277.07zM610.4 402.07L653.71 427.07L653.71 477.07L610.4 502.07L567.1 477.07L567.1 427.07zM826.92 27.07L870.22 52.07L870.22 102.07L826.92 127.07L783.62 102.07L783.62 52.07zM783.62 102.07L826.92 127.07L826.92 177.07L783.62 202.07L740.31 177.07L740.31 127.07zM783.62 252.07L826.92 277.07L826.92 327.07L783.62 352.07L740.31 327.07L740.31 277.07zM913.52 327.07L956.83 352.07L956.83 402.07L913.52 427.07L870.22 402.07L870.22 352.07zM870.22 402.07L913.52 427.07L913.52 477.07L870.22 502.07L826.92 477.07L826.92 427.07zM913.52 477.07L956.83 502.07L956.83 552.07L913.52 577.07L870.22 552.07L870.22 502.07zM1000.13 327.07L1043.43 352.07L1043.43 402.07L1000.13 427.07L956.83 402.07L956.83 352.07zM956.83 402.07L1000.13 427.07L1000.13 477.07L956.83 502.07L913.52 477.07L913.52 427.07zM1000.13 477.07L1043.43 502.07L1043.43 552.07L1000.13 577.07L956.83 552.07L956.83 502.07zM1043.43 102.07L1086.73 127.07L1086.73 177.07L1043.43 202.07L1000.13 177.07L1000.13 127.07zM1173.34 27.07L1216.64 52.07L1216.64 102.07L1173.34 127.07L1130.04 102.07L1130.04 52.07zM1173.34 177.07L1216.64 202.07L1216.64 252.07L1173.34 277.07L1130.04 252.07L1130.04 202.07zM1130.04 252.07L1173.34 277.07L1173.34 327.07L1130.04 352.07L1086.73 327.07L1086.73 277.07zM1130.04 402.07L1173.34 427.07L1173.34 477.07L1130.04 502.07L1086.73 477.07L1086.73 427.07zM1173.34 477.07L1216.64 502.07L1216.64 552.07L1173.34 577.07L1130.04 552.07L1130.04 502.07zM1216.64 -47.93L1259.94 -22.93L1259.94 27.07L1216.64 52.07L1173.34 27.07L1173.34 -22.93zM1259.94 27.07L1303.25 52.07L1303.25 102.07L1259.94 127.07L1216.64 102.07L1216.64 52.07zM1259.94 477.07L1303.25 502.07L1303.25 552.07L1259.94 577.07L1216.64 552.07L1216.64 502.07zM1346.55 327.07L1389.85 352.07L1389.85 402.07L1346.55 427.07L1303.25 402.07L1303.25 352.07zM1389.85 102.07L1433.15 127.07L1433.15 177.07L1389.85 202.07L1346.55 177.07L1346.55 127.07zM1433.15 177.07L1476.46 202.07L1476.46 252.07L1433.15 277.07L1389.85 252.07L1389.85 202.07zM1433.15 477.07L1476.46 502.07L1476.46 552.07L1433.15 577.07L1389.85 552.07L1389.85 502.07z" stroke="url(#SvgjsLinearGradient1210)" stroke-width="2"></path></g><defs><mask id="SvgjsMask1209"><rect width="1440" height="560" fill="#ffffff"></rect></mask><linearGradient x1="220.03199999999998" y1="780.024" x2="1219.9679999999998" y2="-220.02399999999997" gradientUnits="userSpaceOnUse" id="SvgjsLinearGradient1210"><stop stop-color="#0e2a47" offset="0"></stop><stop stop-color="#00459e" offset="1"></stop></linearGradient></defs></svg>